<?xml version="1.0" encoding="utf-8"?>
<!-- Generator: Adobe Illustrator 16.0.3, SVG Export Plug-In . SVG Version: 6.00 Build 0)  -->
<!DOCTYPE svg PUBLIC "-//W3C//DTD SVG 1.1//EN" "http://www.w3.org/Graphics/SVG/1.1/DTD/svg11.dtd">
<svg version="1.1" id="Capa_1" xmlns="http://www.w3.org/2000/svg" xmlns:xlink="http://www.w3.org/1999/xlink" x="0px" y="0px"
	 width="200px" height="130px" viewBox="0 0 200 130" enable-background="new 0 0 200 130" xml:space="preserve">
<g>
	<polygon fill="#E59607" points="59.202,93.207 100.299,93.207 100.299,36.796 59.202,36.796 30.989,65.002 	"/>
	<polygon fill="#E59607" points="15.742,65.002 57.636,106.893 62.916,101.613 26.297,65.002 62.916,28.384 57.636,23.107 	"/>
	<path fill="#E59607" d="M162.501,46.795c0-1.001-0.811-1.812-1.815-1.812h-7.815c-1.001,0-1.815,0.811-1.815,1.812v11.171h-39.491
		c0.605,2.535,0.936,5.168,0.936,7.881c0,2.717-0.33,5.353-0.936,7.885h70.883c1.001,0,1.812-0.814,1.812-1.815v-6.069v-7.881
		V46.795c0-1.001-0.811-1.812-1.812-1.812h-7.818c-1.002,0-1.815,0.811-1.815,1.812v11.171h-10.312V46.795z"/>
</g>
</svg>
