<?xml version="1.0" encoding="utf-8"?>
<!-- Generator: Adobe Illustrator 16.0.3, SVG Export Plug-In . SVG Version: 6.00 Build 0)  -->
<!DOCTYPE svg PUBLIC "-//W3C//DTD SVG 1.1//EN" "http://www.w3.org/Graphics/SVG/1.1/DTD/svg11.dtd">
<svg version="1.1" id="Capa_1" xmlns="http://www.w3.org/2000/svg" xmlns:xlink="http://www.w3.org/1999/xlink" x="0px" y="0px"
	 width="200px" height="50px" viewBox="0 0 200 50" enable-background="new 0 0 200 50" xml:space="preserve">
<g>
	<path fill="#FFFFFF" d="M26.13,6.767l-1.99,1.218c-1.098-1.14-2.416-2.004-3.954-2.593c-1.539-0.588-3.229-0.882-5.07-0.882
		c-2.013,0-3.877,0.385-5.593,1.156C7.808,6.437,6.479,7.472,5.535,8.771c-0.944,1.3-1.416,2.762-1.416,4.385
		c0,2.454,1.055,4.501,3.165,6.143c2.11,1.642,4.772,2.463,7.986,2.463c3.534,0,6.49-1.104,8.869-3.311l1.99,1.204
		c-1.258,1.277-2.828,2.264-4.709,2.962s-3.983,1.047-6.305,1.047c-4.415,0-7.897-1.172-10.448-3.517
		C2.53,18.169,1.46,15.779,1.46,12.979c0-2.946,1.295-5.425,3.886-7.437s5.835-3.017,9.736-3.017c2.356,0,4.483,0.372,6.382,1.115
		C23.362,4.384,24.918,5.426,26.13,6.767z"/>
	<path fill="#FFFFFF" d="M31.157,3.032h2.522v8.442h12.85V3.032h2.522v20.126h-2.522v-9.714h-12.85v9.714h-2.522V3.032z"/>
	<path fill="#FFFFFF" d="M81.767,19.409l2.145-1.026c1.509,2.216,3.253,3.325,5.232,3.325c0.846,0,1.641-0.157,2.384-0.472
		c0.744-0.314,1.31-0.736,1.699-1.266c0.389-0.529,0.583-1.09,0.583-1.683c0-0.675-0.286-1.336-0.857-1.984
		c-0.79-0.894-2.23-1.97-4.323-3.229c-2.104-1.268-3.414-2.185-3.929-2.75c-0.892-0.949-1.338-1.975-1.338-3.079
		c0-0.875,0.263-1.674,0.789-2.395c0.526-0.72,1.267-1.288,2.222-1.703s1.993-0.623,3.114-0.623c1.189,0,2.302,0.235,3.337,0.705
		s2.13,1.334,3.285,2.593L94.05,7.068c-0.949-1.003-1.758-1.665-2.427-1.984c-0.669-0.319-1.398-0.479-2.188-0.479
		c-1.018,0-1.85,0.246-2.496,0.739c-0.646,0.493-0.969,1.099-0.969,1.82c0,0.438,0.114,0.862,0.343,1.272
		c0.229,0.41,0.646,0.857,1.252,1.341c0.332,0.255,1.418,0.926,3.26,2.011c2.185,1.286,3.683,2.431,4.495,3.434
		s1.218,2.011,1.218,3.024c0,1.459-0.695,2.727-2.084,3.803c-1.39,1.077-3.08,1.615-5.069,1.615c-1.533,0-2.922-0.326-4.169-0.979
		C83.968,22.034,82.819,20.942,81.767,19.409z"/>
	<path fill="#FFFFFF" d="M101.874,3.032h2.573v7.553l10.087-7.553h3.389l-12.12,9.03l13.063,11.096h-3.358l-11.061-9.375v9.375
		h-2.573V3.032z"/>
	<path fill="#FFFFFF" d="M122.272,3.032h2.521v20.126h-2.521V3.032z"/>
	<path fill="#FFFFFF" d="M128.586,3.032h2.901l6.457,8.301l6.356-8.301h2.916l-7.994,10.508v9.619h-2.488V13.54L128.586,3.032z"/>
	<path fill="#FFFFFF" d="M101.596,45.49l3.744,3.773h-3.105l-2.569-2.602c-2.062,1.014-4.383,1.521-6.965,1.521
		c-3.736,0-6.89-1.021-9.46-3.064s-3.856-4.515-3.856-7.416c0-1.934,0.588-3.728,1.766-5.384c1.177-1.655,2.78-2.948,4.809-3.879
		c2.029-0.93,4.255-1.396,6.678-1.396c3.737,0,6.889,1.02,9.455,3.059c2.566,2.038,3.85,4.545,3.85,7.518
		c0,1.551-0.352,2.97-1.056,4.256C104.182,43.162,103.085,44.366,101.596,45.49z M100.035,43.917
		c2.198-1.708,3.298-3.813,3.298-6.314c0-1.598-0.467-3.043-1.398-4.335c-0.933-1.292-2.245-2.326-3.938-3.103
		c-1.693-0.776-3.477-1.164-5.353-1.164c-1.887,0-3.666,0.386-5.335,1.157s-2.974,1.816-3.912,3.136
		c-0.938,1.318-1.407,2.786-1.407,4.401c0,2.393,1.035,4.412,3.105,6.06c2.07,1.647,4.569,2.472,7.497,2.472
		c2.001,0,3.832-0.388,5.492-1.165l-5.62-5.689h3.061L100.035,43.917z"/>
	<path fill="#FFFFFF" d="M111.138,27.551h2.522V39.7c0,1.441,0.034,2.34,0.103,2.695c0.126,0.794,0.418,1.457,0.875,1.991
		c0.457,0.533,1.161,0.98,2.11,1.341s1.904,0.54,2.865,0.54c0.835,0,1.635-0.142,2.401-0.424c0.767-0.283,1.407-0.675,1.922-1.177
		s0.892-1.108,1.132-1.82c0.172-0.511,0.258-1.56,0.258-3.146V27.551h2.521V39.7c0,1.797-0.22,3.249-0.66,4.357
		s-1.321,2.073-2.643,2.894c-1.32,0.821-2.919,1.231-4.795,1.231c-2.035,0-3.78-0.388-5.232-1.162
		c-1.452-0.775-2.425-1.802-2.916-3.079c-0.309-0.784-0.464-2.198-0.464-4.241V27.551z"/>
	<path fill="#FFFFFF" d="M134.195,27.551h5.026c2.803,0,4.701,0.091,5.696,0.273c1.498,0.274,2.716,0.861,3.654,1.761
		c0.938,0.899,1.406,2.007,1.406,3.322c0,1.096-0.323,2.06-0.969,2.891c-0.646,0.831-1.57,1.459-2.771,1.884
		c-1.2,0.425-2.859,0.642-4.975,0.65l9.075,9.345h-3.12l-9.075-9.345h-1.426v9.345h-2.522V27.551z M136.718,29.521v6.841
		l4.347,0.028c1.685,0,2.93-0.128,3.737-0.384c0.808-0.255,1.438-0.663,1.891-1.225c0.452-0.561,0.679-1.188,0.679-1.881
		c0-0.675-0.229-1.288-0.688-1.841c-0.458-0.552-1.06-0.946-1.804-1.183c-0.745-0.237-1.982-0.356-3.712-0.356H136.718z"/>
	<path fill="#FFFFFF" d="M155.365,27.551h5.026c2.883,0,4.827,0.101,5.833,0.301c1.441,0.283,2.619,0.864,3.534,1.744
		c0.915,0.881,1.373,1.986,1.373,3.318c0,1.341-0.446,2.446-1.339,3.317c-0.892,0.871-2.121,1.457-3.688,1.759
		c-1.144,0.219-3.282,0.328-6.416,0.328h-1.802v9.358h-2.521V27.551z M157.887,29.521v6.827l4.272,0.041
		c1.727,0,2.99-0.125,3.791-0.375s1.43-0.655,1.888-1.215c0.457-0.561,0.686-1.187,0.686-1.878c0-0.674-0.229-1.29-0.686-1.851
		c-0.458-0.56-1.062-0.958-1.811-1.194s-1.976-0.355-3.68-0.355H157.887z"/>
	<path fill="#FFFFFF" d="M186.486,27.551l11.769,20.126h-2.724l-3.97-6.622H180.69l-3.932,6.622h-2.813l11.923-20.126H186.486z
		 M186.168,31.826l-4.325,7.286h8.628L186.168,31.826z"/>
</g>
<g>
	<polygon fill="#E59607" points="57.384,12.592 57.384,24.009 77.034,24.009 77.034,12.592 67.209,4.754 	"/>
	<polygon fill="#E59607" points="67.209,0.519 52.616,12.157 54.455,13.624 67.209,3.451 79.964,13.624 81.803,12.157 	"/>
	<path fill="#E59607" d="M73.55,41.289c0.349,0,0.632-0.226,0.632-0.504v-2.172c0-0.278-0.283-0.505-0.632-0.505h-3.892V27.14
		c-0.882,0.168-1.8,0.259-2.745,0.259s-1.863-0.091-2.746-0.259v19.691c0,0.278,0.284,0.503,0.633,0.503h2.113h2.745h3.892
		c0.349,0,0.632-0.225,0.632-0.503v-2.172c0-0.28-0.283-0.506-0.632-0.506h-3.892v-2.864H73.55z"/>
</g>
</svg>
