<?xml version="1.0" encoding="utf-8"?>
<!-- Generator: Adobe Illustrator 22.0.0, SVG Export Plug-In . SVG Version: 6.00 Build 0)  -->
<svg version="1.1" id="Capa_1" xmlns="http://www.w3.org/2000/svg" xmlns:xlink="http://www.w3.org/1999/xlink" x="0px" y="0px"
	 viewBox="0 0 175 175" style="enable-background:new 0 0 175 175;" xml:space="preserve">
<path d="M114.1,123.3c1,0,1.9-0.8,1.9-1.9V47.1c0-1-0.8-1.9-1.9-1.9H45.4c-1,0-1.9,0.8-1.9,1.9v74.3c0,1,0.8,1.9,1.9,1.9H114.1z
	 M112.2,112.1h-3.7V93.6c0-2.4-1.5-4.5-3.7-5.3v-2.2h7.4V112.1z M47.2,49h65v26h-5.6V56.4c0-0.5-0.2-1-0.5-1.3l-1.9-1.9
	c-0.3-0.3-0.8-0.5-1.3-0.5H91.8c-0.5,0-1,0.2-1.3,0.5l-1.9,1.9c-0.3,0.3-0.5,0.8-0.5,1.3V75h-3.7V56.4c0-0.5-0.2-1-0.5-1.3L82,53.3
	c-0.3-0.3-0.8-0.5-1.3-0.5H69.5c-0.5,0-1,0.2-1.3,0.5l-0.5,0.5l-0.5-0.5c-0.3-0.3-0.8-0.5-1.3-0.5H54.6c-0.5,0-1,0.2-1.3,0.5
	l-1.9,1.9c-0.3,0.3-0.5,0.8-0.5,1.3V75h-3.7V49z M91.8,68.9v-3.6l11.1-2.8v3.6L91.8,68.9z M102.9,69.9v4.3l-0.8,0.8h-9.6l-0.8-0.8
	v-1.5L102.9,69.9z M91.8,61.5v-4.3l0.8-0.8h9.6l0.8,0.8v1.5L91.8,61.5z M71.4,71.3c3.1,0,5.6-2.5,5.6-5.6c0-3.1-2.5-5.6-5.6-5.6
	c-0.6,0-1.3,0.1-1.9,0.3v-3.3l0.8-0.8h9.6l0.8,0.8v17L79.9,75h-9.6l-0.8-0.8v-3.3C70.1,71.2,70.7,71.3,71.4,71.3z M69.5,65.7
	c0-1,0.8-1.9,1.9-1.9c1,0,1.9,0.8,1.9,1.9c0,1-0.8,1.9-1.9,1.9C70.3,67.6,69.5,66.7,69.5,65.7z M62.1,67.6h-3.7
	c-1.3,0-2.6,0.3-3.7,1v-1c0-2.1,1.7-3.7,3.7-3.7h3.7c1.3,0,2.6-0.3,3.7-1v1C65.8,65.9,64.1,67.6,62.1,67.6z M65.8,70.3v4L65,75h-9.6
	l-0.7-0.7c0.3-1.7,1.9-3,3.6-3h3.7C63.4,71.3,64.7,70.9,65.8,70.3z M54.6,61.2v-4l0.8-0.8H65l0.7,0.7c-0.3,1.7-1.9,3-3.6,3h-3.7
	C57,60.2,55.8,60.5,54.6,61.2z M47.2,78.7h65v3.7h-65V78.7z M104.8,99.1v3.7h-3.7v3.7h3.7v5.6H93.6v-5.6h3.7v-3.7h-3.7v-3.7h3.7
	v-3.7h-3.7v-1.9c0-1,0.8-1.9,1.9-1.9s1.9-0.8,1.9-1.9v-3.7h3.7v3.7c0,1,0.8,1.9,1.9,1.9c1,0,1.9,0.8,1.9,1.9v1.9h-3.7v3.7H104.8z
	 M80.6,89.1v-3h13v2.2c-2.2,0.8-3.7,2.9-3.7,5.3v18.6h-5.6V98.8C84.4,95.2,83,91.8,80.6,89.1z M69.5,108.4h11.1v3.7H69.5V108.4z
	 M68.3,90.7c-0.2,0.4-0.4,0.7-0.6,1.1c-0.5-1-1.2-1.8-1.9-2.6v-3h3.7v3C69.1,89.6,68.7,90.1,68.3,90.7z M69.5,104.7V101h11.1v3.7
	H69.5z M77.5,91.2c1.7,1.7,2.7,3.8,3,6.1H69.6c0.3-2.3,1.4-4.5,3.1-6.1c0.3-0.3,0.5-0.8,0.5-1.3v-3.7h3.7v3.7
	C76.9,90.3,77.1,90.8,77.5,91.2z M54.6,104.7V101h11.1v3.7H54.6z M65.8,108.4v3.7H54.6v-3.7H65.8z M62.6,91.2c1.7,1.7,2.7,3.8,3,6.1
	H54.8c0.3-2.3,1.4-4.5,3.1-6.1c0.3-0.3,0.5-0.8,0.5-1.3v-3.7h3.7v3.7C62.1,90.3,62.3,90.8,62.6,91.2z M47.2,86.1h7.4v3
	c-0.4,0.5-0.8,1-1.2,1.6c-1.6,2.4-2.5,5.2-2.5,8.2v13.3h-3.7V86.1z M47.2,115.9h65v3.7h-65V115.9z"/>
<path d="M34.6,139.5h9.3c1,0,1.9-0.8,1.9-1.9v-5.6h65v5.6c0,1,0.8,1.9,1.9,1.9h9.3c1,0,1.9-0.8,1.9-1.9v-5.6h11.1
	c4.1,0,7.4-3.3,7.4-7.4V42.9c0-4.1-3.3-7.4-7.4-7.4h-13c-0.7,0-1.4,0.4-1.7,1.1c-1.2-0.7-2.5-1.1-3.9-1.1H40.1
	c-4.1,0-7.4,3.3-7.4,7.4v94.7C32.7,138.7,33.5,139.5,34.6,139.5z M131.1,39.2h3.7c2.1,0,3.7,1.7,3.7,3.7v81.7c0,2.1-1.7,3.7-3.7,3.7
	h-3.7V39.2z M123.7,42.9v-3.7h3.7v89.1h-3.7V42.9z M120,135.8h-5.6v-3.7h5.6V135.8z M36.4,42.9c0-2.1,1.7-3.7,3.7-3.7h76.1
	c2.1,0,3.7,1.7,3.7,3.7v85.4H36.4V42.9z M36.4,132.1H42v3.7h-5.6V132.1z"/>
</svg>
