<?xml version="1.0" encoding="utf-8"?>
<!-- Generator: Adobe Illustrator 16.0.3, SVG Export Plug-In . SVG Version: 6.00 Build 0)  -->
<!DOCTYPE svg PUBLIC "-//W3C//DTD SVG 1.1//EN" "http://www.w3.org/Graphics/SVG/1.1/DTD/svg11.dtd">
<svg version="1.1" id="Capa_1" xmlns="http://www.w3.org/2000/svg" xmlns:xlink="http://www.w3.org/1999/xlink" x="0px" y="0px"
	 width="170px" height="170px" viewBox="0 0 170 170" enable-background="new 0 0 170 170" xml:space="preserve">
<g>
	<path fill="#303030" d="M136.233,46.134h-7.066c-0.976,0-1.767,0.79-1.767,1.767v37.099h-14.134c-1.951,0-3.533,1.582-3.533,3.533
		v3.533c-0.976,0-1.767,0.791-1.767,1.768v5.301c0,0.975,0.791,1.766,1.767,1.766h1.767v21.199c0,0.977,0.791,1.768,1.767,1.768h5.3
		c0.976,0,1.767-0.791,1.767-1.768v-21.199h8.834v21.199c0,0.977,0.791,1.768,1.767,1.768h5.3c0.976,0,1.767-0.791,1.767-1.768V47.9
		C138,46.924,137.209,46.134,136.233,46.134z M111.5,97.366v-1.768h22.967v1.768H111.5z M113.267,88.532H127.4V90.3h3.533V49.667
		h3.533v42.398h-21.2V88.532z M116.8,120.333h-1.767v-19.434h1.767V120.333z M134.467,120.333H132.7v-19.434h1.767V120.333z"/>
	<path fill="#303030" d="M106.2,83.233c1.951,0,3.533-1.582,3.533-3.533v-1.767h1.767c0.976,0,1.767-0.791,1.767-1.767v-3.533
		c0-2.928-2.373-5.301-5.3-5.301h-4.208c1.544-1.328,2.435-3.263,2.441-5.3h3.533V58.5H106.2v-1.767
		c0-0.976-0.791-1.767-1.767-1.767H93.833c-0.976,0-1.767,0.791-1.767,1.767v5.3c0.007,2.037,0.897,3.972,2.441,5.3H75.492
		c1.544-1.328,2.435-3.263,2.441-5.3v-5.3c0-0.976-0.791-1.767-1.767-1.767H65.566c-0.976,0-1.767,0.791-1.767,1.767V58.5h-3.533
		v3.533H63.8c0.007,2.037,0.897,3.972,2.441,5.3h-4.208c-2.927,0-5.3,2.373-5.3,5.301v3.533c0,0.976,0.791,1.767,1.767,1.767h1.767
		V79.7c0,1.951,1.582,3.533,3.533,3.533h15.9v30.033h-1.767c-0.976,0-1.767,0.791-1.767,1.766v5.301H69.1v3.533H100.9v-3.533h-7.067
		v-5.301c0-0.975-0.791-1.766-1.767-1.766H90.3V83.233H106.2z M95.6,58.5h7.067v3.533c0,1.951-1.582,3.533-3.533,3.533
		c-1.952,0-3.534-1.582-3.534-3.533V58.5z M67.333,58.5H74.4v3.533c0,1.951-1.582,3.533-3.534,3.533
		c-1.951,0-3.533-1.582-3.533-3.533V58.5z M60.267,72.634c0-0.976,0.791-1.768,1.767-1.768h45.934c0.976,0,1.767,0.792,1.767,1.768
		V74.4H60.267V72.634z M63.8,77.934h42.4V79.7H63.8V77.934z M79.7,120.333V116.8h10.6v3.533H79.7z M86.767,113.267h-3.533V83.233
		h3.533V113.267z"/>
	<path fill="#303030" d="M60.267,92.065v-3.533c0-1.951-1.582-3.533-3.533-3.533H42.6V47.9c0-0.977-0.791-1.767-1.767-1.767h-7.066
		c-0.976,0-1.767,0.79-1.767,1.767v74.198c0,0.977,0.791,1.768,1.767,1.768h5.3c0.976,0,1.767-0.791,1.767-1.768v-21.199h8.834
		v21.199c0,0.977,0.791,1.768,1.767,1.768h5.3c0.976,0,1.767-0.791,1.767-1.768v-21.199h1.767c0.976,0,1.767-0.791,1.767-1.766
		v-5.301C62.033,92.856,61.242,92.065,60.267,92.065z M35.533,49.667h3.533V90.3H42.6v-1.768h14.134v3.533h-21.2V49.667z
		 M37.3,120.333h-1.767v-19.434H37.3V120.333z M54.967,120.333H53.2v-19.434h1.767V120.333z M58.5,97.366H35.533v-1.768H58.5V97.366
		z"/>
</g>
</svg>
