<?xml version="1.0" encoding="utf-8"?>
<!-- Generator: Adobe Illustrator 16.0.3, SVG Export Plug-In . SVG Version: 6.00 Build 0)  -->
<!DOCTYPE svg PUBLIC "-//W3C//DTD SVG 1.1//EN" "http://www.w3.org/Graphics/SVG/1.1/DTD/svg11.dtd">
<svg version="1.1" id="Capa_1" xmlns="http://www.w3.org/2000/svg" xmlns:xlink="http://www.w3.org/1999/xlink" x="0px" y="0px"
	 width="170px" height="170px" viewBox="0 0 170 170" enable-background="new 0 0 170 170" xml:space="preserve">
<g>
	<path fill="#303030" d="M136.234,90.301h-14.134V85c0-0.976-0.792-1.768-1.768-1.768H95.601c-0.976,0-1.768,0.792-1.768,1.768
		v5.301H76.167V85c0-0.976-0.792-1.768-1.766-1.768H49.667c-0.976,0-1.766,0.792-1.766,1.768v5.301H33.767
		c-0.976,0-1.767,0.791-1.767,1.766v7.067c0,0.976,0.791,1.768,1.767,1.768h1.767v35.333c0,0.975,0.792,1.766,1.768,1.766h95.398
		c0.976,0,1.768-0.791,1.768-1.766v-35.333h1.768c0.975,0,1.766-0.792,1.766-1.768v-7.067C138,91.092,137.209,90.301,136.234,90.301
		z M97.366,86.767h21.201v3.534H97.366V86.767z M51.434,86.767h21.2v3.534h-21.2V86.767z M39.067,100.901h44.167v33.566H39.067
		V100.901z M130.934,134.468H86.767v-33.566h44.167V134.468z M134.467,97.366H35.533v-3.533h98.934V97.366z"/>
	<path fill="#303030" d="M46.134,60.267h77.732c0.976,0,1.768-0.791,1.768-1.767V47.9c0-0.591-0.296-1.143-0.786-1.471l-9.814-6.542
		v-6.122c0-0.975-0.792-1.766-1.767-1.766H56.734c-0.976,0-1.768,0.791-1.768,1.766v6.122l-9.814,6.537
		c-0.492,0.329-0.788,0.883-0.786,1.476v10.6C44.366,59.476,45.158,60.267,46.134,60.267z M111.5,35.534v3.533h-53v-3.533H111.5z
		 M57.264,42.6h55.473l5.301,3.533H51.963L57.264,42.6z M47.901,49.667h74.199v7.067H47.901V49.667z"/>
	<path fill="#303030" d="M54.967,51.433h7.066v3.533h-7.066V51.433z"/>
	<path fill="#303030" d="M65.567,51.433h7.066v3.533h-7.066V51.433z"/>
	<path fill="#303030" d="M76.167,51.433h7.067v3.533h-7.067V51.433z"/>
	<path fill="#303030" d="M86.767,51.433h7.066v3.533h-7.066V51.433z"/>
	<path fill="#303030" d="M97.366,51.433h7.067v3.533h-7.067V51.433z"/>
	<path fill="#303030" d="M107.967,51.433h7.066v3.533h-7.066V51.433z"/>
	<path fill="#303030" d="M76.167,111.5h3.532v7.067h-3.532V111.5z"/>
	<path fill="#303030" d="M90.301,111.5h3.532v7.067h-3.532V111.5z"/>
</g>
</svg>
