<?xml version="1.0" encoding="utf-8"?>
<!-- Generator: Adobe Illustrator 22.0.0, SVG Export Plug-In . SVG Version: 6.00 Build 0)  -->
<svg version="1.1" id="Capa_1" xmlns="http://www.w3.org/2000/svg" xmlns:xlink="http://www.w3.org/1999/xlink" x="0px" y="0px"
	 viewBox="0 0 175 175" style="enable-background:new 0 0 175 175;" xml:space="preserve">
<g>
	<path d="M113.7,59.9H33.6c-1,0-1.8,0.8-1.8,1.8v51.5c0,1,0.8,1.8,1.8,1.8h80.1c1,0,1.8-0.8,1.8-1.8V61.7
		C115.5,60.7,114.7,59.9,113.7,59.9z M52.8,111.5c-3.1,0-5.9-2.1-6.7-5.2h55.3c-0.8,3-3.6,5.1-6.7,5.2H52.8z M68.3,78
		c-0.9,0-1.7-0.7-1.7-1.7s0.7-1.7,1.7-1.7H79c0.9,0,1.7,0.7,1.7,1.7S79.9,78,79,78H68.3z M69.7,81.6h7.8c10.4,0,18.8,8.4,18.8,18.8
		v2.3H50.9v-2.3C51,90,59.4,81.6,69.7,81.6z M111.9,111.5h-9.4c1.7-1.9,2.6-4.4,2.6-7c0-1-0.8-1.8-1.8-1.8H100v-2.3
		c0-10.1-6.7-18.9-16.4-21.6c0.4-0.8,0.7-1.6,0.7-2.5c0-2.9-2.4-5.3-5.3-5.3H68.3c-2.9,0-5.3,2.4-5.3,5.3c0,0.9,0.2,1.7,0.7,2.5
		c-9.7,2.7-16.4,11.5-16.4,21.6v2.3H44c-1,0-1.8,0.8-1.8,1.8c0,2.6,0.9,5,2.6,7h-9.4V63.5h76.5L111.9,111.5z"/>
	<path d="M151.7,49.6H23.3c-1,0-1.8,0.8-1.8,1.8v72.1c0,1,0.8,1.8,1.8,1.8l0,0h128.4c1,0,1.8-0.8,1.8-1.8l0,0V51.4
		C153.5,50.4,152.7,49.6,151.7,49.6L151.7,49.6z M25.1,53.2h97.1v68.5H25.1V53.2z M149.9,121.8h-24.1V53.2h24.1L149.9,121.8z"/>
	<path d="M134.3,78.1h7.1c1,0,1.8-0.8,1.8-1.8V61.7c0-1-0.8-1.8-1.8-1.8h-7.1c-1,0-1.8,0.8-1.8,1.8c0,0,0,0,0,0v14.6
		C132.5,77.3,133.3,78.1,134.3,78.1C134.3,78.1,134.3,78.1,134.3,78.1z M136.1,63.5h3.4v10.9h-3.4V63.5z"/>
	<path d="M134.3,87.6h7.1c1,0,1.8-0.8,1.8-1.8s-0.8-1.8-1.8-1.8h-7.1c-1,0-1.8,0.8-1.8,1.8C132.5,86.8,133.3,87.6,134.3,87.6
		L134.3,87.6z"/>
	<path d="M134.3,97.1h7.1c1,0,1.8-0.8,1.8-1.8s-0.8-1.8-1.8-1.8h-7.1c-1,0-1.8,0.8-1.8,1.8S133.3,97.1,134.3,97.1L134.3,97.1z"/>
	<path d="M134.3,106.6h7.1c1,0,1.8-0.8,1.8-1.8s-0.8-1.8-1.8-1.8h-7.1c-1,0-1.8,0.8-1.8,1.8S133.3,106.6,134.3,106.6L134.3,106.6z"
		/>
</g>
</svg>
