<?xml version="1.0" encoding="utf-8"?>
<!-- Generator: Adobe Illustrator 16.0.3, SVG Export Plug-In . SVG Version: 6.00 Build 0)  -->
<!DOCTYPE svg PUBLIC "-//W3C//DTD SVG 1.1//EN" "http://www.w3.org/Graphics/SVG/1.1/DTD/svg11.dtd">
<svg version="1.1" id="Capa_1" xmlns="http://www.w3.org/2000/svg" xmlns:xlink="http://www.w3.org/1999/xlink" x="0px" y="0px"
	 width="170px" height="170px" viewBox="0 0 170 170" enable-background="new 0 0 170 170" xml:space="preserve">
<g>
	<path fill="#303030" d="M68.694,97.492l2.348,2.347c7.787-7.768,20.391-7.768,28.177,0l2.352-2.347
		C92.492,88.412,77.772,88.412,68.694,97.492z"/>
	<path fill="#303030" d="M73.392,102.188l2.348,2.348c5.192-5.178,13.595-5.178,18.786,0l2.348-2.348
		C90.385,95.715,79.881,95.715,73.392,102.188z"/>
	<path fill="#303030" d="M78.089,106.886l2.348,2.348c2.627-2.511,6.765-2.511,9.392,0l2.348-2.348
		C88.285,102.997,81.979,102.997,78.089,106.886z"/>
	<path fill="#303030" d="M88.453,113.93c0,1.834-1.486,3.32-3.32,3.32s-3.321-1.486-3.321-3.32s1.487-3.321,3.321-3.321
		S88.453,112.096,88.453,113.93z"/>
	<path fill="#303030" d="M138,41.967c0.004-1.803-1.156-3.403-2.872-3.959c-1.716-0.556-3.594,0.06-4.648,1.524L106.646,72.42
		c-1.807,0.039-3.25,1.514-3.25,3.32v1.66H66.602v-1.66c0.001-1.807-1.442-3.281-3.249-3.32L39.516,39.527
		c-1.338-1.847-3.92-2.26-5.768-0.923c-1.094,0.772-1.745,2.026-1.748,3.364c0.005,0.876,0.284,1.727,0.797,2.437l22.268,30.733
		c-0.047,0.199-0.075,0.4-0.085,0.604v1.66H43.622c-2.751,0-4.98,2.23-4.98,4.982v44.83c0,2.751,2.229,4.981,4.98,4.981h83.021
		c2.751,0,4.981-2.23,4.981-4.981v-44.83c0-2.752-2.23-4.982-4.981-4.982H115.02v-1.66c-0.01-0.204-0.038-0.407-0.086-0.605
		l22.281-30.751C137.722,43.68,137.995,42.835,138,41.967z M106.718,75.74l4.981,0.012V77.4h-4.981V75.74z M58.3,75.74h4.981v1.66
		H58.3V75.74z M35.32,41.967c0.006-0.268,0.143-0.516,0.367-0.664c0.138-0.103,0.306-0.158,0.478-0.158
		c0.043,0,0.086,0.003,0.128,0.01c0.217,0.036,0.409,0.155,0.538,0.333L59.249,72.42H58.3c-0.311,0.003-0.62,0.051-0.918,0.139
		c-0.022,0-0.05,0-0.074,0.012l-21.81-30.096C35.388,42.328,35.325,42.151,35.32,41.967z M126.643,80.722
		c0.917,0,1.66,0.743,1.66,1.661v44.83c0,0.917-0.743,1.66-1.66,1.66H43.622c-0.917,0-1.66-0.743-1.66-1.66v-44.83
		c0-0.918,0.743-1.661,1.66-1.661H126.643z M134.514,42.454L112.695,72.57c-0.023-0.008-0.05,0-0.073-0.012
		c-0.3-0.09-0.61-0.137-0.923-0.139h-0.948l22.416-30.932c0.129-0.182,0.328-0.303,0.55-0.335s0.446,0.029,0.621,0.169
		c0.215,0.148,0.343,0.392,0.344,0.652C134.677,42.148,134.618,42.316,134.514,42.454z"/>
	<path fill="#303030" d="M46.943,122.231h3.32v3.321h-3.32V122.231z"/>
	<path fill="#303030" d="M55.245,122.231h3.321v3.321h-3.321V122.231z"/>
	<path fill="#303030" d="M63.547,122.231h3.321v3.321h-3.321V122.231z"/>
</g>
</svg>
