<?xml version="1.0" encoding="utf-8"?>
<!-- Generator: Adobe Illustrator 16.0.3, SVG Export Plug-In . SVG Version: 6.00 Build 0)  -->
<!DOCTYPE svg PUBLIC "-//W3C//DTD SVG 1.1//EN" "http://www.w3.org/Graphics/SVG/1.1/DTD/svg11.dtd">
<svg version="1.1" xmlns="http://www.w3.org/2000/svg" xmlns:xlink="http://www.w3.org/1999/xlink" x="0px" y="0px" width="300px"
	 height="270px" viewBox="0 0 300 270" enable-background="new 0 0 300 270" xml:space="preserve">
<g id="Capa_3">
</g>
<g id="Capa_2">
	<g>
		<defs>
			<path id="SVGID_1_" d="M43.309,99.681l19.488,22.065l-38.975,44.13H4.333v-22.065L43.309,99.681z M21.339,159.085l4.263-4.826
				l-11.009-12.464l-4.263,4.826v5.676h5.997v6.788H21.339z M45.839,109.865c0-0.777-0.344-1.166-1.031-1.166
				c-0.313,0-0.578,0.124-0.795,0.371l-25.391,28.747c-0.219,0.248-0.329,0.549-0.329,0.901c0,0.778,0.344,1.167,1.031,1.167
				c0.312,0,0.577-0.123,0.796-0.371l25.39-28.748C45.729,110.519,45.839,110.219,45.839,109.865z M75.306,104.773
				c0,1.875-0.579,3.465-1.734,4.774l-7.776,8.804L46.307,96.287l7.777-8.751c1.124-1.343,2.53-2.016,4.216-2.016
				c1.656,0,3.076,0.672,4.262,2.016l11.01,12.41C74.727,101.325,75.306,102.935,75.306,104.773z M295.987,110.048
				c0,0.374-0.154,0.697-0.462,0.968c-0.31,0.274-0.674,0.41-1.096,0.41h-4.675v5.511h4.675c0.422,0,0.786,0.136,1.096,0.409
				c0.308,0.273,0.462,0.596,0.462,0.968v8.266c0,0.372-0.154,0.696-0.462,0.968c-0.31,0.272-0.674,0.411-1.096,0.411h-4.675v5.509
				h4.675c0.422,0,0.786,0.138,1.096,0.41c0.308,0.273,0.462,0.594,0.462,0.969v8.268c0,0.371-0.154,0.695-0.462,0.969
				c-0.31,0.271-0.674,0.406-1.096,0.406h-4.675v9.646c0,1.894-0.763,3.515-2.287,4.865c-1.527,1.348-3.359,2.023-5.503,2.023
				h-59.202c-2.143,0-3.976-0.676-5.5-2.023c-1.528-1.351-2.29-2.972-2.29-4.865V90.761c0-1.895,0.762-3.516,2.29-4.866
				c1.524-1.348,3.357-2.023,5.5-2.023h59.202c2.144,0,3.976,0.675,5.503,2.023c1.524,1.35,2.287,2.971,2.287,4.866v9.644h4.675
				c0.422,0,0.786,0.137,1.096,0.409c0.308,0.273,0.462,0.596,0.462,0.969V110.048z M283.525,154.136V90.761
				c0-0.373-0.157-0.696-0.465-0.969c-0.309-0.272-0.675-0.409-1.096-0.409h-59.202c-0.421,0-0.788,0.136-1.096,0.409
				c-0.309,0.273-0.461,0.596-0.461,0.969v63.375c0,0.373,0.152,0.696,0.461,0.969c0.308,0.273,0.675,0.407,1.096,0.407h59.202
				c0.421,0,0.787-0.134,1.096-0.407C283.368,154.832,283.525,154.509,283.525,154.136z M262.687,121.069
				c1.491,0,2.832,0.245,4.016,0.733c1.185,0.488,2.159,1.169,2.921,2.044c0.763,0.876,1.404,1.837,1.923,2.885
				c0.521,1.047,0.909,2.209,1.17,3.488c0.259,1.277,0.446,2.459,0.561,3.55c0.112,1.094,0.169,2.225,0.169,3.402
				c0,1.925-0.642,3.624-1.922,5.103c-1.284,1.48-2.996,2.217-5.138,2.217h-28.043c-2.143,0-3.854-0.736-5.137-2.217
				c-1.282-1.479-1.924-3.178-1.924-5.103c0-1.378,0.073-2.719,0.22-4.026c0.146-1.305,0.444-2.719,0.901-4.241
				c0.455-1.521,1.046-2.833,1.777-3.939c0.729-1.104,1.752-2.029,3.067-2.776c1.313-0.746,2.829-1.121,4.55-1.121h0.244
				c0.227,0.116,0.746,0.396,1.56,0.841c0.811,0.444,1.386,0.747,1.727,0.903c0.342,0.158,0.875,0.401,1.608,0.733
				c0.729,0.328,1.33,0.557,1.802,0.687c0.471,0.13,1.038,0.26,1.704,0.387c0.664,0.13,1.305,0.194,1.922,0.194
				c0.615,0,1.258-0.064,1.923-0.194c0.666-0.127,1.235-0.257,1.704-0.387s1.07-0.359,1.803-0.687
				c0.729-0.332,1.265-0.575,1.605-0.733c0.341-0.157,0.917-0.459,1.729-0.903C261.938,121.464,262.459,121.185,262.687,121.069z
				 M265.023,111.598c0,3.072-1.242,5.697-3.727,7.878c-2.48,2.181-5.46,3.272-8.933,3.272c-3.474,0-6.45-1.091-8.934-3.272
				c-2.484-2.182-3.725-4.806-3.725-7.878c0-3.1,1.24-5.74,3.725-7.921c2.483-2.181,5.46-3.272,8.934-3.272
				c3.473,0,6.452,1.091,8.933,3.272C263.781,105.858,265.023,108.499,265.023,111.598z M163.413,170.729v48.549
				c0,1.339-0.513,2.482-1.536,3.431c-1.019,0.949-2.254,1.423-3.694,1.423H95.408c-1.444,0-2.676-0.474-3.699-1.423
				c-1.021-0.948-1.532-2.092-1.532-3.431v-48.549c0-1.339,0.511-2.484,1.532-3.433c1.022-0.948,2.255-1.422,3.699-1.422h62.774
				c1.44,0,2.676,0.474,3.694,1.422C162.9,168.245,163.413,169.391,163.413,170.729z M95.408,180.439h62.774v-4.476v-5.234h-33.84
				l-2.615,4.854H95.408V180.439z M95.408,219.278h62.774v-4.856H95.408V219.278z M100.64,173.156h15.693v-4.854H100.64V173.156z
				 M137.89,207.804c3.066-2.845,4.598-6.277,4.598-10.298c0-4.02-1.532-7.452-4.598-10.298c-3.064-2.844-6.763-4.266-11.095-4.266
				s-8.031,1.422-11.096,4.266c-3.066,2.846-4.597,6.278-4.597,10.298c0,4.021,1.531,7.453,4.597,10.298
				c3.065,2.845,6.764,4.268,11.096,4.268S134.825,210.648,137.89,207.804z M134.192,190.641c2.042,1.897,3.065,4.187,3.065,6.865
				c0,2.681-1.023,4.97-3.065,6.865c-2.044,1.896-4.51,2.846-7.397,2.846c-2.89,0-5.354-0.949-7.397-2.846
				c-2.044-1.896-3.065-4.185-3.065-6.865c0-2.679,1.021-4.968,3.065-6.865c2.043-1.896,4.508-2.844,7.397-2.844
				C129.683,187.797,132.148,188.745,134.192,190.641z M127.735,193.449c0.243-0.229,0.367-0.519,0.367-0.873
				s-0.124-0.645-0.367-0.873c-0.246-0.228-0.56-0.342-0.94-0.342c-1.797,0-3.338,0.596-4.619,1.783
				c-1.28,1.188-1.92,2.617-1.92,4.286c0,0.354,0.122,0.646,0.368,0.872c0.246,0.228,0.557,0.342,0.941,0.342
				c0.381,0,0.693-0.114,0.939-0.342c0.245-0.227,0.369-0.518,0.369-0.872c0-1.011,0.381-1.87,1.144-2.579
				c0.761-0.708,1.689-1.063,2.779-1.063C127.176,193.789,127.489,193.676,127.735,193.449z M93.688,82.919v29.614
				c0,1.881-0.323,3.593-0.972,5.135c-0.649,1.542-1.492,2.622-2.534,3.239v36.045c0,1.603-0.346,2.991-1.041,4.164
				s-1.517,1.758-2.466,1.758h-3.504c-0.951,0-1.772-0.585-2.466-1.758c-0.694-1.173-1.04-2.562-1.04-4.164v-36.045
				c-1.043-0.617-1.886-1.696-2.535-3.239c-0.648-1.542-0.972-3.254-0.972-5.135V82.919c0-0.803,0.171-1.496,0.52-2.082
				c0.346-0.586,0.757-0.879,1.231-0.879c0.475,0,0.886,0.292,1.232,0.879c0.348,0.586,0.522,1.279,0.522,2.082v19.249
				c0,0.803,0.171,1.497,0.52,2.082c0.345,0.586,0.757,0.879,1.232,0.879c0.474,0,0.886-0.293,1.232-0.879
				c0.348-0.585,0.522-1.279,0.522-2.082V82.919c0-0.803,0.172-1.496,0.521-2.082c0.346-0.586,0.757-0.879,1.232-0.879
				c0.474,0,0.886,0.292,1.231,0.879c0.349,0.586,0.52,1.279,0.52,2.082v19.249c0,0.803,0.174,1.497,0.522,2.082
				c0.346,0.586,0.757,0.879,1.232,0.879c0.475,0,0.886-0.293,1.231-0.879c0.346-0.585,0.521-1.279,0.521-2.082V82.919
				c0-0.803,0.174-1.496,0.52-2.082c0.348-0.586,0.76-0.879,1.234-0.879c0.475,0,0.886,0.292,1.232,0.879
				C93.514,81.423,93.688,82.116,93.688,82.919z M99.77,84.308c1.716-2.9,3.779-4.35,6.19-4.35h7.013
				c0.474,0,0.886,0.292,1.232,0.879c0.348,0.586,0.522,1.279,0.522,2.082v74.033c0,1.603-0.349,2.991-1.043,4.164
				s-1.514,1.758-2.464,1.758h-3.506c-0.949,0-1.772-0.585-2.467-1.758c-0.694-1.173-1.04-2.562-1.04-4.164v-23.691h-6.137
				c-0.237,0-0.442-0.145-0.616-0.439c-0.174-0.292-0.26-0.64-0.26-1.041 M203.833,86.355c0.755,0.539,1.136,1.251,1.136,2.138
				v56.813c0,0.539-0.149,1.022-0.446,1.453c-0.299,0.431-0.689,0.739-1.177,0.927l-25.975,10.332c-0.647,0.295-1.298,0.295-1.946,0
				l-24.999-9.929l-24.999,9.929c-0.27,0.132-0.593,0.201-0.972,0.201c-0.515,0-1.002-0.147-1.462-0.443
				c-0.757-0.54-1.136-1.251-1.136-2.141V98.824c0-0.538,0.149-1.022,0.447-1.453c0.295-0.43,0.689-0.74,1.176-0.929l25.971-10.33
				c0.648-0.296,1.3-0.296,1.949,0l24.997,9.926l24.999-9.926C202.263,85.764,203.073,85.846,203.833,86.355z M127.05,100.56v51.242
				l22.079-8.756V91.803L127.05,100.56z M151.724,91.803v51.243l23.375,9.28v-51.243L151.724,91.803z M199.773,143.571V92.328
				l-22.076,8.755v51.243L199.773,143.571z M109.557,58.894v5.67c0,0.277-0.087,0.502-0.263,0.68s-0.4,0.267-0.672,0.267h-2.805
				v6.617c0,1.3-0.458,2.413-1.374,3.339c-0.915,0.926-2.016,1.389-3.301,1.389H65.613c-1.286,0-2.387-0.463-3.302-1.389
				c-0.916-0.926-1.373-2.039-1.373-3.339V28.642c0-1.3,0.457-2.412,1.373-3.338c0.915-0.926,2.016-1.389,3.302-1.389h35.529
				c1.286,0,2.386,0.463,3.301,1.389c0.916,0.926,1.374,2.038,1.374,3.338v6.617h2.805c0.272,0,0.496,0.089,0.672,0.267
				c0.176,0.177,0.263,0.402,0.263,0.679v5.671c0,0.276-0.087,0.501-0.263,0.679c-0.176,0.178-0.4,0.267-0.672,0.267h-2.805v3.78
				h2.805c0.272,0,0.496,0.089,0.672,0.268c0.176,0.177,0.263,0.402,0.263,0.679v5.671c0,0.276-0.087,0.502-0.263,0.68
				s-0.4,0.267-0.672,0.267h-2.805v3.781h2.805c0.272,0,0.496,0.089,0.672,0.266C109.469,58.391,109.557,58.617,109.557,58.894z
				 M96.029,60.488c0-1.123-0.055-2.177-0.16-3.161c-0.108-0.985-0.313-1.974-0.615-2.969c-0.302-0.994-0.687-1.841-1.154-2.541
				c-0.467-0.698-1.09-1.27-1.87-1.713c-0.779-0.442-1.665-0.665-2.658-0.665c-0.117,0.079-0.443,0.28-0.979,0.605
				c-0.536,0.325-0.949,0.566-1.241,0.725c-0.293,0.158-0.688,0.354-1.184,0.59c-0.497,0.236-0.975,0.403-1.432,0.502
				c-0.458,0.099-0.911,0.148-1.358,0.148c-0.448,0-0.902-0.049-1.359-0.148c-0.458-0.099-0.935-0.266-1.431-0.502
				c-0.497-0.237-0.891-0.433-1.184-0.59c-0.292-0.158-0.707-0.399-1.242-0.725c-0.536-0.326-0.861-0.526-0.979-0.605
				c-0.994,0-1.88,0.222-2.659,0.665c-0.779,0.443-1.402,1.015-1.87,1.713c-0.467,0.7-0.852,1.547-1.155,2.541
				c-0.302,0.995-0.506,1.984-0.613,2.969c-0.107,0.984-0.161,2.038-0.161,3.161c0,1.438,0.41,2.634,1.228,3.589
				c0.818,0.956,1.821,1.434,3.009,1.434h16.83c1.188,0,2.191-0.478,3.009-1.434C95.619,63.122,96.029,61.927,96.029,60.488z
				 M90.974,42.941c0-2.128-0.746-3.939-2.235-5.437c-1.49-1.497-3.278-2.246-5.362-2.246c-2.084,0-3.871,0.749-5.361,2.246
				c-1.49,1.498-2.235,3.309-2.235,5.437c0,2.106,0.745,3.909,2.235,5.406s3.277,2.245,5.361,2.245c2.084,0,3.872-0.748,5.362-2.245
				C90.229,46.85,90.974,45.047,90.974,42.941z M206.681,4.062c2.004,2.053,2.276,4.973,0.817,8.762
				c-1.459,3.788-3.921,7.183-7.384,10.182l-11.008,9.53l10.937,41.203c0.23,0.75-0.043,1.399-0.816,1.952l-8.752,5.682
				c-0.321,0.238-0.754,0.357-1.301,0.357c-0.181,0-0.342-0.02-0.477-0.06c-0.684-0.119-1.164-0.434-1.436-0.948l-19.077-30.073
				l-17.708,15.333l3.625,11.485c0.226,0.67,0.045,1.283-0.549,1.833l-6.562,5.685c-0.411,0.355-0.934,0.533-1.573,0.533h-0.136
				c-0.684-0.08-1.231-0.334-1.642-0.771l-12.922-14.916l-17.23-11.19c-0.502-0.275-0.798-0.729-0.889-1.359
				c-0.044-0.514,0.16-1.008,0.616-1.481l6.563-5.742c0.41-0.354,0.934-0.533,1.572-0.533c0.273,0,0.456,0.02,0.547,0.059
				l13.265,3.136l17.709-15.331l-34.734-16.518c-0.639-0.314-1.025-0.788-1.163-1.422c-0.091-0.63,0.113-1.163,0.616-1.598
				l8.75-7.576c0.64-0.512,1.322-0.67,2.053-0.474l45.466,9.413l10.942-9.472c3.461-2.999,7.381-5.13,11.759-6.394
				C200.935,2.091,204.307,2.326,206.681,4.062z M243.051,61.918v15.412h-3.324v3.27c0,0.903-0.325,1.674-0.977,2.313
				c-0.648,0.639-1.434,0.958-2.35,0.958c-0.92,0-1.704-0.319-2.354-0.958c-0.651-0.64-0.977-1.411-0.977-2.313v-3.27h-19.96v3.27
				c0,0.903-0.325,1.674-0.975,2.313c-0.65,0.639-1.434,0.958-2.352,0.958c-0.919,0-1.704-0.319-2.354-0.958
				c-0.648-0.64-0.975-1.411-0.975-2.313v-3.27h-3.326V61.918c0-1.907,0.214-3.807,0.647-5.698l2.679-11.603
				c0.156-1.329,1.002-2.496,2.535-3.501c1.531-1.005,3.526-1.764,5.978-2.275c2.45-0.512,5.159-0.767,8.123-0.767
				c2.961,0,5.67,0.255,8.121,0.767c2.453,0.511,4.445,1.27,5.98,2.275c1.532,1.005,2.378,2.172,2.534,3.501l2.729,11.603
				C242.854,57.958,243.051,59.857,243.051,61.918z M212.135,71.465c0.649-0.638,0.975-1.41,0.975-2.313
				c0-0.903-0.325-1.674-0.975-2.313c-0.65-0.638-1.434-0.958-2.352-0.958c-0.919,0-1.704,0.32-2.354,0.958
				c-0.648,0.639-0.975,1.41-0.975,2.313c0,0.903,0.326,1.675,0.975,2.313c0.649,0.638,1.435,0.958,2.354,0.958
				C210.701,72.423,211.484,72.103,212.135,71.465z M238.53,59.031l-1.871-9.813c-0.088-0.392-0.283-0.711-0.585-0.958
				c-0.304-0.248-0.653-0.372-1.053-0.372h-23.863c-0.396,0-0.747,0.125-1.05,0.372c-0.304,0.247-0.501,0.566-0.585,0.958
				l-1.871,9.813c-0.089,0.511,0.034,0.962,0.363,1.354c0.328,0.393,0.753,0.588,1.271,0.588h27.604
				c0.522,0,0.945-0.195,1.275-0.588C238.497,59.994,238.616,59.542,238.53,59.031z M232.293,44.26
				c0.241-0.239,0.363-0.528,0.363-0.87c0-0.34-0.122-0.63-0.363-0.869c-0.245-0.237-0.538-0.357-0.883-0.357h-16.637
				c-0.349,0-0.642,0.12-0.884,0.357c-0.244,0.239-0.363,0.529-0.363,0.869c0,0.341,0.119,0.631,0.363,0.87
				c0.242,0.238,0.535,0.357,0.884,0.357h16.637C231.755,44.618,232.048,44.499,232.293,44.26z M238.75,71.465
				c0.651-0.638,0.977-1.41,0.977-2.313c0-0.903-0.325-1.674-0.977-2.313c-0.648-0.638-1.434-0.958-2.35-0.958
				c-0.92,0-1.704,0.32-2.354,0.958c-0.651,0.639-0.977,1.41-0.977,2.313c0,0.903,0.325,1.675,0.977,2.313
				c0.65,0.638,1.435,0.958,2.354,0.958C237.316,72.423,238.102,72.103,238.75,71.465z M258.329,185.097v74.077
				c0,2.006-0.696,3.742-2.083,5.209c-1.389,1.466-3.031,2.199-4.933,2.199h-77.148c-1.902,0-3.545-0.733-4.933-2.199
				c-1.39-1.467-2.084-3.203-2.084-5.209v-74.077c0-2.005,0.694-3.742,2.084-5.208c1.388-1.468,3.03-2.2,4.933-2.2h7.012v-5.557
				c0-2.545,0.858-4.724,2.575-6.538c1.717-1.813,3.781-2.721,6.191-2.721h3.508c2.411,0,4.475,0.907,6.19,2.721
				c1.718,1.814,2.578,3.993,2.578,6.538v5.557h21.041v-5.557c0-2.545,0.856-4.724,2.576-6.538c1.717-1.813,3.78-2.721,6.19-2.721
				h3.506c2.411,0,4.474,0.907,6.193,2.721c1.716,1.814,2.574,3.993,2.574,6.538v5.557h7.013c1.901,0,3.544,0.732,4.933,2.2
				C257.633,181.354,258.329,183.092,258.329,185.097z M174.165,216.578h15.778v-16.667h-15.778V216.578z M174.165,238.803h15.778
				v-18.52h-15.778V238.803z M174.165,259.174h15.778v-16.667h-15.778V259.174z M195.204,188.802v-16.67
				c0-0.5-0.174-0.934-0.52-1.301c-0.348-0.366-0.76-0.55-1.233-0.55h-3.508c-0.474,0-0.886,0.184-1.231,0.55
				c-0.349,0.367-0.521,0.801-0.521,1.301v16.67c0,0.5,0.173,0.935,0.521,1.302c0.346,0.366,0.758,0.549,1.231,0.549h3.508
				c0.474,0,0.886-0.183,1.233-0.549C195.03,189.736,195.204,189.302,195.204,188.802z M193.451,216.578h17.535v-16.667h-17.535
				V216.578z M193.451,238.803h17.535v-18.52h-17.535V238.803z M193.451,259.174h17.535v-16.667h-17.535V259.174z M214.493,216.578
				h17.534v-16.667h-17.534V216.578z M214.493,238.803h17.534v-18.52h-17.534V238.803z M214.493,259.174h17.534v-16.667h-17.534
				V259.174z M237.286,188.802v-16.67c0-0.5-0.172-0.934-0.521-1.301c-0.346-0.366-0.757-0.55-1.232-0.55h-3.506
				c-0.478,0-0.886,0.184-1.234,0.55c-0.346,0.367-0.52,0.801-0.52,1.301v16.67c0,0.5,0.174,0.935,0.52,1.302
				c0.349,0.366,0.757,0.549,1.234,0.549h3.506c0.476,0,0.887-0.183,1.232-0.549C237.114,189.736,237.286,189.302,237.286,188.802z
				 M235.533,216.578h15.78v-16.667h-15.78V216.578z M235.533,238.803h15.78v-18.52h-15.78V238.803z M235.533,259.174h15.78v-16.667
				h-15.78V259.174z"/>
		</defs>
		<clipPath id="SVGID_2_">
			<use xlink:href="#SVGID_1_"  overflow="visible"/>
		</clipPath>
		
			<linearGradient id="SVGID_3_" gradientUnits="userSpaceOnUse" x1="0.23" y1="155.5879" x2="371.1963" y2="155.5879" gradientTransform="matrix(1.5996 0.0174 -0.0119 1.0887 -43.3646 -29.828)">
			<stop  offset="0" style="stop-color:#386CB0"/>
			<stop  offset="1" style="stop-color:#386CAF;stop-opacity:0"/>
		</linearGradient>
		<polygon clip-path="url(#SVGID_2_)" fill="url(#SVGID_3_)" points="546.596,325.286 -46.754,318.762 -42.888,-39.682 
			550.462,-33.156 		"/>
	</g>
</g>
</svg>
