<?xml version="1.0" encoding="utf-8"?>
<!-- Generator: Adobe Illustrator 16.0.3, SVG Export Plug-In . SVG Version: 6.00 Build 0)  -->
<!DOCTYPE svg PUBLIC "-//W3C//DTD SVG 1.1//EN" "http://www.w3.org/Graphics/SVG/1.1/DTD/svg11.dtd">
<svg version="1.1" id="Capa_1" xmlns="http://www.w3.org/2000/svg" xmlns:xlink="http://www.w3.org/1999/xlink" x="0px" y="0px"
	 width="170px" height="170px" viewBox="0 0 170 170" enable-background="new 0 0 170 170" xml:space="preserve">
<g>
	<path d="M131.051,47.648H38.95c-3.832,0-6.95,3.117-6.95,6.948v35.568c0,0.965,0.782,1.748,1.747,1.748h102.505
		c0.966,0,1.748-0.783,1.748-1.748V54.596C138,50.765,134.882,47.648,131.051,47.648z M39.571,51.142h90.857v2.216
		c0,1.154-0.939,2.094-2.095,2.094H41.666c-1.155,0-2.095-0.939-2.095-2.094V51.142L39.571,51.142z M130.429,79.68H39.571v-0.235
		c0-1.154,0.94-2.094,2.095-2.094h86.668c1.155,0,2.095,0.939,2.095,2.094V79.68z M39.571,82.01h90.857v2.33H39.571V82.01z
		 M39.571,86.67h90.857v1.746H39.571V86.67z M134.506,88.416h-1.747v-8.971c0-2.438-1.985-4.424-4.425-4.424H41.666
		c-2.44,0-4.424,1.985-4.424,4.424v8.971h-1.747v-33.82c0-1.283,0.705-2.403,1.747-2.999v1.761c0,2.439,1.985,4.424,4.424,4.424
		h86.668c2.439,0,4.425-1.984,4.425-4.424v-1.761c1.041,0.596,1.747,1.716,1.747,2.999V88.416z"/>
	<path d="M90.358,70.362H79.642c-0.644,0-1.165,0.521-1.165,1.165c0,0.643,0.521,1.164,1.165,1.164h10.717
		c0.644,0,1.165-0.521,1.165-1.164C91.523,70.883,91.002,70.362,90.358,70.362z"/>
	<path d="M125.537,70.362c-0.308,0-0.608,0.124-0.825,0.341c-0.217,0.216-0.34,0.517-0.34,0.824s0.123,0.608,0.34,0.822
		c0.217,0.219,0.518,0.342,0.825,0.342c0.305,0,0.605-0.123,0.822-0.342c0.217-0.216,0.342-0.517,0.342-0.822
		c0-0.305-0.125-0.605-0.342-0.824C126.143,70.486,125.842,70.362,125.537,70.362z"/>
	<path d="M120.179,70.362c-0.308,0-0.607,0.124-0.825,0.341c-0.216,0.216-0.34,0.517-0.34,0.824s0.124,0.606,0.34,0.822
		c0.217,0.217,0.518,0.342,0.825,0.342c0.305,0,0.605-0.125,0.822-0.342c0.217-0.216,0.343-0.517,0.343-0.822
		c0-0.308-0.126-0.608-0.343-0.824C120.784,70.486,120.483,70.362,120.179,70.362z"/>
	<path d="M75.406,99.547c0.314-0.561,0.114-1.271-0.446-1.586s-1.271-0.115-1.586,0.445c-2.117,3.777-2.117,8.469,0,12.246
		c1.723,3.072,1.723,6.891,0,9.965c-0.315,0.561-0.115,1.271,0.446,1.586c0.18,0.102,0.375,0.148,0.568,0.148
		c0.408,0,0.803-0.213,1.018-0.596c2.116-3.775,2.116-8.467,0-12.242C73.683,106.439,73.683,102.621,75.406,99.547L75.406,99.547z"
		/>
	<path d="M86.017,99.547c0.314-0.561,0.114-1.271-0.447-1.586c-0.561-0.314-1.271-0.115-1.585,0.445
		c-2.118,3.777-2.118,8.469-0.001,12.246c1.724,3.072,1.724,6.891,0,9.965c-0.314,0.561-0.114,1.271,0.447,1.586
		c0.18,0.102,0.375,0.148,0.567,0.148c0.408,0,0.804-0.213,1.018-0.596c2.117-3.775,2.117-8.467,0-12.242
		C84.292,106.439,84.293,102.621,86.017,99.547L86.017,99.547z"/>
	<path d="M96.626,99.547c0.315-0.561,0.115-1.271-0.446-1.586c-0.561-0.314-1.271-0.115-1.586,0.445
		c-2.117,3.777-2.117,8.469,0,12.246c1.723,3.074,1.723,6.891,0,9.965c-0.314,0.561-0.115,1.271,0.446,1.586
		c0.181,0.102,0.376,0.148,0.568,0.148c0.408,0,0.804-0.213,1.018-0.596c2.117-3.775,2.117-8.467,0-12.242
		C94.903,106.439,94.903,102.621,96.626,99.547L96.626,99.547z"/>
</g>
</svg>
