<?xml version="1.0" encoding="utf-8"?>
<!-- Generator: Adobe Illustrator 16.0.3, SVG Export Plug-In . SVG Version: 6.00 Build 0)  -->
<!DOCTYPE svg PUBLIC "-//W3C//DTD SVG 1.1//EN" "http://www.w3.org/Graphics/SVG/1.1/DTD/svg11.dtd">
<svg version="1.1" id="Capa_1" xmlns="http://www.w3.org/2000/svg" xmlns:xlink="http://www.w3.org/1999/xlink" x="0px" y="0px"
	 width="170px" height="170px" viewBox="0 0 170 170" enable-background="new 0 0 170 170" xml:space="preserve">
<g>
	<path fill="#303030" d="M121.219,97.365c2.927,0,5.3-2.372,5.3-5.3s-2.373-5.301-5.3-5.301h-1.767v-7.067
		c-0.005-4.195-2.957-7.812-7.067-8.656v-1.944c-0.007-4.876-3.958-8.827-8.834-8.833h-0.09
		c-0.949-16.211-14.617-28.728-30.848-28.25c-16.231,0.478-29.14,13.777-29.132,30.016v74.205c0,0.976,0.791,1.766,1.766,1.766
		c0.977,0,1.768-0.79,1.768-1.766V62.029c-0.006-14.286,11.321-26.003,25.603-26.48c14.277-0.477,26.362,10.458,27.31,24.715h-3.533
		c-0.954-12.294-11.45-21.638-23.772-21.163S50.553,49.699,50.548,62.029v74.205c0,0.976,0.791,1.766,1.767,1.766
		s1.768-0.79,1.768-1.766V62.029c0.044-10.357,8.201-18.859,18.549-19.331c10.348-0.471,19.246,7.255,20.23,17.565
		c-4.844,0.049-8.746,3.989-8.745,8.833v1.944c-4.11,0.845-7.062,4.461-7.066,8.656v7.067h-1.767c-2.928,0-5.301,2.373-5.301,5.301
		s2.373,5.3,5.301,5.3H121.219z M87.65,69.097c0-2.927,2.372-5.301,5.3-5.301h10.601c2.927,0,5.301,2.374,5.301,5.301v1.767H87.65
		V69.097z M80.584,79.697c0-2.927,2.371-5.301,5.3-5.301h24.734c2.927,0,5.3,2.374,5.3,5.301v7.067H80.584V79.697z M73.517,92.065
		c0-0.977,0.791-1.768,1.767-1.768h45.936c0.976,0,1.767,0.791,1.767,1.768c0,0.976-0.791,1.766-1.767,1.766H75.283
		C74.308,93.831,73.517,93.041,73.517,92.065z"/>
	<path fill="#303030" d="M117.686,107.966c0,1.952-1.582,3.533-3.534,3.533c-1.951,0-3.533-1.581-3.533-3.533
		c0-1.951,1.582-3.533,3.533-3.533C116.104,104.433,117.686,106.015,117.686,107.966z"/>
	<path fill="#303030" d="M126.519,113.266c0,1.952-1.582,3.534-3.533,3.534s-3.533-1.582-3.533-3.534
		c0-1.951,1.582-3.533,3.533-3.533S126.519,111.314,126.519,113.266z"/>
	<path fill="#303030" d="M89.416,107.966c0,1.952-1.582,3.533-3.532,3.533c-1.952,0-3.534-1.581-3.534-3.533
		c0-1.951,1.582-3.533,3.534-3.533C87.834,104.433,89.416,106.015,89.416,107.966z"/>
	<path fill="#303030" d="M80.584,113.266c0,1.952-1.583,3.534-3.534,3.534s-3.533-1.582-3.533-3.534
		c0-1.951,1.582-3.533,3.533-3.533S80.584,111.314,80.584,113.266z"/>
	<path fill="#303030" d="M108.852,102.665c0,1.952-1.583,3.533-3.533,3.533c-1.952,0-3.534-1.581-3.534-3.533
		c0-1.951,1.582-3.533,3.534-3.533C107.269,99.132,108.852,100.714,108.852,102.665z"/>
	<path fill="#303030" d="M108.852,111.499c0,1.952-1.583,3.533-3.533,3.533c-1.952,0-3.534-1.581-3.534-3.533
		c0-1.951,1.582-3.533,3.534-3.533C107.269,107.966,108.852,109.548,108.852,111.499z"/>
	<path fill="#303030" d="M108.852,120.333c0,1.952-1.583,3.533-3.533,3.533c-1.952,0-3.534-1.581-3.534-3.533
		c0-1.951,1.582-3.533,3.534-3.533C107.269,116.8,108.852,118.382,108.852,120.333z"/>
	<path fill="#303030" d="M98.251,102.665c0,1.952-1.582,3.533-3.534,3.533c-1.951,0-3.533-1.581-3.533-3.533
		c0-1.951,1.582-3.533,3.533-3.533C96.669,99.132,98.251,100.714,98.251,102.665z"/>
	<path fill="#303030" d="M98.251,111.499c0,1.952-1.582,3.533-3.534,3.533c-1.951,0-3.533-1.581-3.533-3.533
		c0-1.951,1.582-3.533,3.533-3.533C96.669,107.966,98.251,109.548,98.251,111.499z"/>
	<path fill="#303030" d="M98.251,120.333c0,1.952-1.582,3.533-3.534,3.533c-1.951,0-3.533-1.581-3.533-3.533
		c0-1.951,1.582-3.533,3.533-3.533C96.669,116.8,98.251,118.382,98.251,120.333z"/>
</g>
</svg>
