<?xml version="1.0" encoding="utf-8"?>
<!-- Generator: Adobe Illustrator 22.0.0, SVG Export Plug-In . SVG Version: 6.00 Build 0)  -->
<svg version="1.1" id="Capa_1" xmlns="http://www.w3.org/2000/svg" xmlns:xlink="http://www.w3.org/1999/xlink" x="0px" y="0px"
	 viewBox="0 0 175 175" style="enable-background:new 0 0 175 175;" xml:space="preserve">
<path d="M120.6,117.3h-6.9c0-12.7-9.5-23.3-21.8-25v-7c1.5-0.8,3-1.8,4.3-3c4.1-3.7,6.6-8.7,7.2-14.2l3.2-29.4h2.1c2.7,0,5-2.2,5-5
	v-1.6c0-2.7-2.2-5-5-5H54c-2.7,0-5,2.2-5,5v1.6c0,2.7,2.2,5,5,5h2.1l3.2,29.4c0.5,5.5,3.1,10.5,7.2,14.2c1.3,1.2,2.7,2.2,4.3,3v7
	C58.5,94,49,104.6,49,117.4v29.9c0,0.3,0,0.6,0.1,0.8c0.4,2.6,2.7,4.7,5.4,4.7h53.8c3,0,5.5-2.5,5.5-5.5v-9.4h6.9
	c2.4,0,4.4-2,4.4-4.4v-11.8C125,119.3,123,117.3,120.6,117.3L120.6,117.3z M52.8,33.7v-1.6c0-0.7,0.6-1.3,1.3-1.3h54.7
	c0.7,0,1.3,0.6,1.3,1.3v1.6c0,0.7-0.6,1.3-1.3,1.3h-3.8H57.8H54C53.3,35,52.8,34.4,52.8,33.7L52.8,33.7z M63.1,67.7L61.4,53h3.8
	c1,0,1.8-0.8,1.8-1.8c0-1-0.8-1.8-1.8-1.8H61l-1.2-10.6h43l-1.2,10.6H72.6c-1,0-1.8,0.8-1.8,1.8c0,1,0.8,1.8,1.8,1.8h28.7l-1.6,14.7
	c-0.9,9.5-8.8,16.6-18.3,16.6C71.9,84.3,64,77.2,63.1,67.7L63.1,67.7z M81.4,88c2.4,0,4.7-0.4,6.9-1.1v5.1H74.5v-5.1
	C76.7,87.7,79,88,81.4,88L81.4,88z M110.1,147.3c0,1-0.8,1.8-1.8,1.8H54.5c-0.9,0-1.7-0.7-1.8-1.6c0-0.1,0-0.1,0-0.2v-1.8h6
	c1,0,1.8-0.8,1.8-1.8s-0.8-1.8-1.8-1.8h-6v-24.3c0-11.9,9.7-21.6,21.6-21.6h14.1c11.9,0,21.6,9.7,21.6,21.6v1.8V136v5.7H66.1
	c-1,0-1.8,0.8-1.8,1.8s0.8,1.8,1.8,1.8h43.9L110.1,147.3z M121.3,133.5c0,0.4-0.3,0.7-0.7,0.7h-6.9V121h6.9c0.4,0,0.7,0.3,0.7,0.7
	V133.5z"/>
</svg>
