<?xml version="1.0" encoding="utf-8"?>
<!-- Generator: Adobe Illustrator 16.0.3, SVG Export Plug-In . SVG Version: 6.00 Build 0)  -->
<!DOCTYPE svg PUBLIC "-//W3C//DTD SVG 1.1//EN" "http://www.w3.org/Graphics/SVG/1.1/DTD/svg11.dtd">
<svg version="1.1" id="Capa_1" xmlns="http://www.w3.org/2000/svg" xmlns:xlink="http://www.w3.org/1999/xlink" x="0px" y="0px"
	 width="170px" height="170px" viewBox="0 0 170 170" enable-background="new 0 0 170 170" xml:space="preserve">
<g>
	<path fill-rule="evenodd" clip-rule="evenodd" fill="#303030" d="M44.854,84.778c-0.002-14.495-0.011-28.99,0.003-43.485
		c0.005-5.399,1.375-6.955,6.674-6.969c22.326-0.06,44.652,0.006,66.978-0.051c4.613-0.011,6.65,2.044,6.642,6.663
		c-0.055,29.323-0.003,58.646-0.047,87.971c-0.008,5.224-1.598,6.767-6.997,6.779c-22.159,0.053-44.319,0.061-66.478-0.008
		c-5.407-0.017-6.752-1.506-6.763-6.915C44.837,114.102,44.855,99.439,44.854,84.778z M123.187,85.318
		c0-13.986,0.021-27.972-0.01-41.958c-0.014-6.4-0.533-6.955-6.731-6.964c-20.979-0.031-41.958-0.031-62.937,0
		c-6.065,0.009-6.688,0.598-6.693,6.496c-0.031,28.139,0.046,56.277-0.075,84.415c-0.019,4.453,1.37,6.124,6.052,6.078
		c21.477-0.214,42.957-0.217,64.434,0c4.721,0.049,6.072-1.693,6.021-6.11C123.079,113.29,123.185,99.303,123.187,85.318z"/>
	<path fill-rule="evenodd" clip-rule="evenodd" fill="#303030" d="M66.538,60.191c-4.163,0-8.329-0.106-12.487,0.034
		c-3.328,0.112-5.058-1.338-5.124-4.614c-0.08-3.994-0.081-7.993-0.004-11.987c0.063-3.237,1.719-4.738,5.071-4.696
		c8.324,0.104,16.651,0.089,24.976,0.008c3.754-0.036,5.544,1.523,5.408,5.38c-0.128,3.658-0.029,7.324-0.003,10.986
		c0.023,3.274-1.539,4.947-4.85,4.94c-4.329-0.008-8.658-0.002-12.987-0.002C66.538,60.225,66.538,60.208,66.538,60.191z
		 M66.502,58.952c0.831,0,1.662,0,2.493,0c15.15,0,15.23-0.01,13.393-15.118c-0.161-1.324-2.265-3.394-3.531-3.443
		c-8.133-0.315-16.289-0.294-24.426-0.034c-1.325,0.042-3.49,1.62-3.753,2.82c-2.841,12.941-0.535,15.775,12.333,15.775
		C64.174,58.952,65.338,58.952,66.502,58.952z"/>
	<path fill-rule="evenodd" clip-rule="evenodd" fill="#303030" d="M103.284,60.181c-4.329,0-8.658-0.026-12.986,0.009
		c-3.102,0.025-4.646-1.575-4.71-4.557c-0.085-3.994-0.069-7.991-0.011-11.986c0.049-3.289,1.813-4.729,5.094-4.703
		c8.49,0.066,16.981,0.039,25.473,0.019c3.648-0.009,4.991,1.838,4.814,5.364c-0.175,3.485-0.177,6.992-0.004,10.478
		c0.187,3.776-1.241,5.598-5.185,5.451c-4.157-0.155-8.323-0.035-12.485-0.035C103.284,60.207,103.284,60.193,103.284,60.181z
		 M103.553,40.226c0-0.008,0-0.016,0-0.024c-0.998,0-1.995-0.023-2.992,0.003c-15.223,0.403-13.146-3.261-13.272,14.589
		c-0.021,2.909,1.168,4.237,4.158,4.172c4.818-0.106,9.641,0.059,14.459-0.029c15.979-0.29,13.31,2.746,13.557-14.244
		c0.002-0.166,0.065-0.401-0.02-0.488c-1.296-1.338-2.483-3.599-3.948-3.798C111.578,39.873,107.541,40.226,103.553,40.226z"/>
</g>
</svg>
