<?xml version="1.0" encoding="utf-8"?>
<!-- Generator: Adobe Illustrator 16.0.3, SVG Export Plug-In . SVG Version: 6.00 Build 0)  -->
<!DOCTYPE svg PUBLIC "-//W3C//DTD SVG 1.1//EN" "http://www.w3.org/Graphics/SVG/1.1/DTD/svg11.dtd">
<svg version="1.1" id="Capa_1" xmlns="http://www.w3.org/2000/svg" xmlns:xlink="http://www.w3.org/1999/xlink" x="0px" y="0px"
	 width="170px" height="170px" viewBox="0 0 170 170" enable-background="new 0 0 170 170" xml:space="preserve">
<g>
	<g>
		<path fill-rule="evenodd" clip-rule="evenodd" fill="#303030" d="M85.253,48.057c15.16,0,30.321-0.022,45.482,0.011
			c6.112,0.013,7.321,1.216,7.326,7.287c0.021,28.987,0.022,57.976-0.004,86.964c-0.005,5.65-1.385,7.115-7.084,7.125
			c-30.654,0.053-61.309,0.051-91.964,0.004c-5.734-0.01-7.067-1.43-7.072-7.092c-0.02-28.99-0.019-57.979-0.001-86.965
			c0.004-6.02,1.262-7.302,7.335-7.319C54.598,48.029,69.926,48.058,85.253,48.057z M84.705,147.053
			c14.985,0,29.972-0.137,44.954,0.08c4.595,0.066,6.474-1.1,6.437-6.113c-0.207-28.303-0.189-56.609-0.013-84.913
			c0.029-4.726-1.788-6.031-6.172-6.015c-29.97,0.106-59.941,0.129-89.91-0.018c-4.903-0.024-6.214,1.886-6.186,6.547
			c0.167,28.137,0.164,56.275,0.001,84.414c-0.026,4.504,1.251,6.18,5.935,6.105C54.732,146.902,69.72,147.051,84.705,147.053z"/>
		<path fill-rule="evenodd" clip-rule="evenodd" fill="#303030" d="M109.399,73.951c-5.83,0-11.662-0.07-17.491,0.027
			c-3.604,0.059-5.156-1.504-5.01-5.125c0.155-3.826,0.101-7.662,0.026-11.492c-0.062-3.141,1.415-4.62,4.503-4.62
			c12.16-0.001,24.32-0.004,36.481-0.01c3.285-0.001,4.891,1.593,4.85,4.914c-0.048,3.83-0.053,7.662,0.006,11.493
			c0.051,3.355-1.594,4.877-4.874,4.867c-6.164-0.018-12.327-0.004-18.491-0.004C109.399,73.984,109.399,73.969,109.399,73.951z
			 M109.586,72.697c0,0.006,0,0.012,0,0.018c2.665,0,5.33,0.045,7.993-0.008c15.938-0.32,13.045,2.656,13.472-13.863
			c0.098-3.749-1.371-4.991-4.979-4.923c-8.157,0.153-16.321-0.072-24.479,0.069c-15.094,0.262-13.234-2.979-13.322,14.115
			c0,0.166,0.018,0.333,0.013,0.499c-0.094,2.982,1.436,4.15,4.317,4.113C98.262,72.646,103.924,72.697,109.586,72.697z"/>
		<path fill-rule="evenodd" clip-rule="evenodd" fill="#303030" d="M59.934,73.955c-5.828,0-11.658-0.105-17.482,0.039
			c-3.607,0.088-5.253-1.529-5.266-5.016c-0.014-3.829-0.039-7.659,0.018-11.487c0.049-3.236,1.663-4.803,5.008-4.786
			c11.987,0.061,23.977,0.052,35.964,0.006c3.305-0.013,4.95,1.391,4.894,4.779c-0.064,3.828-0.091,7.66,0.014,11.487
			c0.101,3.646-1.659,5.095-5.167,5.05c-5.993-0.074-11.987-0.02-17.981-0.02C59.934,73.99,59.934,73.973,59.934,73.955z
			 M59.804,72.715c2.991,0,5.982,0.047,8.972-0.01c14.831-0.279,12.866,2.682,13.07-13.849c0.046-3.709-1.637-4.971-5.157-4.921
			c-8.14,0.114-16.283-0.073-24.423,0.052c-15.712,0.24-13.026-2.64-13.418,13.896c-0.09,3.779,1.444,4.984,5.008,4.871
			C49.166,72.584,54.487,72.709,59.804,72.715z"/>
	</g>
	<g>
		<path fill="#303030" d="M94.213,24.748c0.003,0.055-0.001,0.111-0.015,0.167l-1.233,4.935c-0.063,0.249-0.285,0.423-0.541,0.424
			l-7.402,0.038c-0.001,0-0.002,0-0.003,0h-7.401c-0.258,0-0.482-0.175-0.545-0.425l-1.233-4.953
			c-0.014-0.057-0.019-0.115-0.015-0.171C75.348,24.611,75,24.165,75,23.639c0-0.649,0.528-1.178,1.178-1.178
			s1.178,0.528,1.178,1.178c0,0.366-0.168,0.693-0.431,0.909l1.545,1.556c0.391,0.393,0.932,0.619,1.486,0.619
			c0.655,0,1.28-0.311,1.673-0.833l2.539-3.363c-0.214-0.213-0.346-0.507-0.346-0.832c0-0.649,0.528-1.178,1.178-1.178
			s1.178,0.528,1.178,1.178c0,0.315-0.125,0.601-0.327,0.812c0.001,0.001,0.001,0.002,0.002,0.003l2.521,3.373
			c0.393,0.526,1.02,0.84,1.677,0.84c0.56,0,1.085-0.218,1.48-0.613l1.555-1.554c-0.269-0.216-0.44-0.546-0.44-0.917
			c0-0.649,0.528-1.178,1.178-1.178S95,22.989,95,23.639C95,24.151,94.671,24.586,94.213,24.748z M92.844,32.068
			c0-0.31-0.251-0.561-0.561-0.561H77.779c-0.311,0-0.562,0.251-0.562,0.561v1.346c0,0.31,0.251,0.561,0.562,0.561h14.504
			c0.31,0,0.561-0.251,0.561-0.561V32.068z"/>
		<g>
		</g>
		<g>
		</g>
		<g>
		</g>
		<g>
		</g>
		<g>
		</g>
		<g>
		</g>
		<g>
		</g>
		<g>
		</g>
		<g>
		</g>
		<g>
		</g>
		<g>
		</g>
		<g>
		</g>
		<g>
		</g>
		<g>
		</g>
		<g>
		</g>
	</g>
</g>
</svg>
