<?xml version="1.0" encoding="utf-8"?>
<!-- Generator: Adobe Illustrator 16.0.3, SVG Export Plug-In . SVG Version: 6.00 Build 0)  -->
<!DOCTYPE svg PUBLIC "-//W3C//DTD SVG 1.1//EN" "http://www.w3.org/Graphics/SVG/1.1/DTD/svg11.dtd">
<svg version="1.1" id="Capa_1" xmlns="http://www.w3.org/2000/svg" xmlns:xlink="http://www.w3.org/1999/xlink" x="0px" y="0px"
	 width="170px" height="170px" viewBox="0 0 170 170" enable-background="new 0 0 170 170" xml:space="preserve">
<g>
	<g>
		<path fill-rule="evenodd" clip-rule="evenodd" fill="#303030" d="M44.854,97.595c-0.002-14.495-0.011-28.99,0.003-43.485
			c0.005-5.399,1.375-6.955,6.674-6.969c22.326-0.061,44.652,0.006,66.978-0.051c4.613-0.012,6.65,2.044,6.642,6.662
			c-0.055,29.323-0.003,58.646-0.047,87.971c-0.008,5.224-1.598,6.767-6.997,6.779c-22.159,0.053-44.319,0.061-66.478-0.008
			c-5.407-0.017-6.752-1.506-6.763-6.915C44.837,126.918,44.855,112.256,44.854,97.595z M123.187,98.135
			c0-13.986,0.021-27.973-0.01-41.958c-0.014-6.4-0.533-6.955-6.731-6.965c-20.979-0.03-41.958-0.03-62.937,0.001
			c-6.065,0.009-6.688,0.598-6.693,6.496c-0.031,28.139,0.046,56.276-0.075,84.414c-0.019,4.453,1.37,6.124,6.052,6.078
			c21.477-0.214,42.957-0.217,64.434,0c4.721,0.049,6.072-1.693,6.021-6.11C123.079,126.106,123.185,112.119,123.187,98.135z"/>
		<path fill-rule="evenodd" clip-rule="evenodd" fill="#303030" d="M66.538,73.008c-4.163,0-8.329-0.106-12.487,0.034
			c-3.328,0.112-5.058-1.339-5.124-4.614c-0.08-3.994-0.081-7.992-0.004-11.986c0.063-3.237,1.719-4.738,5.071-4.696
			c8.324,0.104,16.651,0.089,24.976,0.009c3.754-0.036,5.544,1.522,5.408,5.38c-0.128,3.658-0.029,7.324-0.003,10.986
			c0.023,3.273-1.539,4.946-4.85,4.94c-4.329-0.009-8.658-0.002-12.987-0.002C66.538,73.042,66.538,73.024,66.538,73.008z
			 M66.502,71.769c0.831,0,1.662,0,2.493,0c15.15,0,15.23-0.01,13.393-15.118c-0.161-1.324-2.265-3.394-3.531-3.442
			c-8.133-0.315-16.289-0.294-24.426-0.034c-1.325,0.042-3.49,1.619-3.753,2.819c-2.841,12.941-0.535,15.775,12.333,15.775
			C64.174,71.769,65.338,71.769,66.502,71.769z"/>
		<path fill-rule="evenodd" clip-rule="evenodd" fill="#303030" d="M103.284,72.997c-4.329,0-8.658-0.025-12.986,0.009
			c-3.102,0.025-4.646-1.574-4.71-4.557c-0.085-3.994-0.069-7.991-0.011-11.986c0.049-3.289,1.813-4.729,5.094-4.703
			c8.49,0.066,16.981,0.039,25.473,0.019c3.648-0.009,4.991,1.838,4.814,5.364c-0.175,3.484-0.177,6.992-0.004,10.478
			c0.187,3.776-1.241,5.598-5.185,5.45c-4.157-0.154-8.323-0.034-12.485-0.034C103.284,73.023,103.284,73.01,103.284,72.997z
			 M103.553,53.042c0-0.008,0-0.016,0-0.023c-0.998,0-1.995-0.023-2.992,0.003c-15.223,0.403-13.146-3.261-13.272,14.59
			c-0.021,2.908,1.168,4.237,4.158,4.172c4.818-0.106,9.641,0.059,14.459-0.029c15.979-0.29,13.31,2.746,13.557-14.243
			c0.002-0.166,0.065-0.401-0.02-0.488c-1.296-1.338-2.483-3.599-3.948-3.799C111.578,52.689,107.541,53.042,103.553,53.042z"/>
	</g>
	<g>
		<path fill="#303030" d="M78.034,32.315v1.343c0,0.325,0.264,0.589,0.589,0.589h12.754c0.325,0,0.589-0.264,0.589-0.589v-1.343
			H78.034z"/>
		<path fill="#303030" d="M95,24.828c0-1.05-0.854-1.903-1.903-1.903s-1.902,0.854-1.902,1.903c0,0.504,0.197,0.963,0.519,1.305
			c-0.572,0.64-1.402,1.044-2.326,1.044c-1.496,0-2.748-1.058-3.051-2.463c0.35-0.346,0.567-0.825,0.567-1.354
			c0-1.049-0.854-1.903-1.903-1.903s-1.903,0.854-1.903,1.903c0,0.529,0.218,1.009,0.567,1.354
			c-0.303,1.405-1.555,2.463-3.051,2.463c-0.924,0-1.754-0.404-2.326-1.044c0.321-0.342,0.519-0.801,0.519-1.305
			c0-1.05-0.853-1.903-1.902-1.903S75,23.778,75,24.828c0,0.909,0.642,1.672,1.495,1.858c0.169,1.395,0.495,3.093,1.126,4.45h14.758
			c0.631-1.357,0.957-3.056,1.126-4.45C94.358,26.5,95,25.737,95,24.828z"/>
	</g>
</g>
</svg>
