<?xml version="1.0" encoding="utf-8"?>
<!-- Generator: Adobe Illustrator 22.0.0, SVG Export Plug-In . SVG Version: 6.00 Build 0)  -->
<svg version="1.1" id="Capa_1" xmlns="http://www.w3.org/2000/svg" xmlns:xlink="http://www.w3.org/1999/xlink" x="0px" y="0px"
	 viewBox="0 0 175 175" style="enable-background:new 0 0 175 175;" xml:space="preserve">
<g>
	<g>
		<g>
			<path d="M63.1,101.3c-5.9,0-10.7,4.8-10.7,10.7c0,5.9,4.8,10.7,10.7,10.7s10.7-4.8,10.7-10.7C73.7,106.1,68.9,101.3,63.1,101.3z
				 M63.1,117.8c-3.2,0-5.8-2.6-5.8-5.8c0-3.2,2.6-5.8,5.8-5.8c3.2,0,5.8,2.6,5.8,5.8C68.9,115.2,66.3,117.8,63.1,117.8z"/>
		</g>
	</g>
	<g>
		<g>
			<path d="M135.7,51.4h-12.4c-1.3,0-2.4,1.1-2.4,2.4s1.1,2.4,2.4,2.4h12.4c3.9,0,7.1,2.6,8.1,6.2h-20.5c-1.3,0-2.4,1.1-2.4,2.4
				v21.8c0,1.3,1.1,2.4,2.4,2.4h20.8v20.6H137c-1.1-4.7-5.3-8.3-10.4-8.3c-5.1,0-9.3,3.5-10.4,8.3h-0.2V64.9c0-1.3-1.1-2.4-2.4-2.4
				H94.3c-1.3,0-2.4,1.1-2.4,2.4v19.5h-45c-1.3,0-2.4,1.1-2.4,2.4s1.1,2.4,2.4,2.4h45v20.4H79.5c-1.3,0-2.4,1.1-2.4,2.4
				s1.1,2.4,2.4,2.4h36.8c1.1,4.7,5.3,8.2,10.4,8.2c5,0,9.2-3.5,10.4-8.2h9.5c1.3,0,2.4-1.1,2.4-2.4V64.6
				C149,57.3,143.1,51.4,135.7,51.4z M111.2,86h-1.5c-1.3,0-2.4,1.1-2.4,2.4c0,1.3,1.1,2.4,2.4,2.4h1.5v18.7H96.7V67.3h14.5V86z
				 M126.7,117.8c-3.2,0-5.8-2.6-5.8-5.8c0-3.2,2.6-5.8,5.8-5.8c3.2,0,5.8,2.6,5.8,5.8C132.5,115.2,129.9,117.8,126.7,117.8z
				 M144.2,84.2h-18.4V67.3h18.4V84.2z"/>
		</g>
	</g>
	<g>
		<g>
			<path d="M115.4,52.1c-0.5-0.5-1.1-0.7-1.7-0.7s-1.3,0.3-1.7,0.7s-0.7,1.1-0.7,1.7s0.3,1.3,0.7,1.7c0.5,0.5,1.1,0.7,1.7,0.7
				s1.3-0.3,1.7-0.7c0.5-0.5,0.7-1.1,0.7-1.7S115.8,52.5,115.4,52.1z"/>
		</g>
	</g>
	<g>
		<g>
			<path d="M104,51.4H38.3c-6.6,0-12.2,4.9-13.1,11.3c-0.1,0.3-0.1,0.5-0.1,0.8V112c0,1.3,1.1,2.4,2.4,2.4h18.2
				c1.3,0,2.4-1.1,2.4-2.4s-1.1-2.4-2.4-2.4H29.8V79.5h8.2c1.3,0,2.4-1.1,2.4-2.4V63.5c0-1.3-1.1-2.4-2.4-2.4h-7.4
				c1.3-2.9,4.3-4.8,7.6-4.8H104c1.3,0,2.4-1.1,2.4-2.4S105.3,51.4,104,51.4z M35.7,65.9v8.7h-5.8v-8.7H35.7z"/>
		</g>
	</g>
	<g>
		<g>
			<path d="M39.8,85c-0.5-0.5-1.1-0.7-1.7-0.7s-1.3,0.3-1.7,0.7c-0.5,0.5-0.7,1.1-0.7,1.7c0,0.6,0.3,1.3,0.7,1.7
				c0.5,0.5,1.1,0.7,1.7,0.7s1.3-0.3,1.7-0.7c0.5-0.5,0.7-1.1,0.7-1.7S40.2,85.5,39.8,85z"/>
		</g>
	</g>
	<g>
		<g>
			<path d="M84.6,61.1H71c-1.3,0-2.4,1.1-2.4,2.4V77c0,1.3,1.1,2.4,2.4,2.4h13.6c1.3,0,2.4-1.1,2.4-2.4V63.5
				C87,62.1,85.9,61.1,84.6,61.1z M82.2,74.6h-8.7v-8.7h8.7V74.6z"/>
		</g>
	</g>
	<g>
		<g>
			<path d="M61.3,61.1H47.8c-1.3,0-2.4,1.1-2.4,2.4V77c0,1.3,1.1,2.4,2.4,2.4h13.6c1.3,0,2.4-1.1,2.4-2.4V63.5
				C63.8,62.1,62.7,61.1,61.3,61.1z M58.9,74.6h-8.7v-8.7h8.7V74.6z"/>
		</g>
	</g>
</g>
</svg>
