<?xml version="1.0" encoding="utf-8"?>
<!-- Generator: Adobe Illustrator 16.0.3, SVG Export Plug-In . SVG Version: 6.00 Build 0)  -->
<!DOCTYPE svg PUBLIC "-//W3C//DTD SVG 1.1//EN" "http://www.w3.org/Graphics/SVG/1.1/DTD/svg11.dtd">
<svg version="1.1" id="Capa_1" xmlns="http://www.w3.org/2000/svg" xmlns:xlink="http://www.w3.org/1999/xlink" x="0px" y="0px"
	 width="170px" height="170px" viewBox="0 0 170 170" enable-background="new 0 0 170 170" xml:space="preserve">
<g>
	<g>
		<g>
			<path fill="#303030" d="M129.166,39.066H40.834c-4.877,0.006-8.828,3.957-8.834,8.833v49.468
				c0.006,4.875,3.957,8.826,8.834,8.832h35.332v10.6H58.5c-2.927,0-5.3,2.375-5.3,5.301v7.066c0,0.977,0.791,1.768,1.767,1.768
				h60.066c0.976,0,1.767-0.791,1.767-1.768V122.1c0-2.926-2.373-5.301-5.3-5.301H93.834v-10.6h35.332
				c4.877-0.006,8.828-3.957,8.834-8.832V47.899C137.994,43.023,134.043,39.072,129.166,39.066z M111.5,120.334
				c0.976,0,1.767,0.791,1.767,1.766v5.301H56.733V122.1c0-0.975,0.791-1.766,1.767-1.766H111.5z M79.7,116.799v-10.6h10.6v10.6
				H79.7z M134.467,97.367c0,2.926-2.373,5.299-5.301,5.299H40.834c-2.928,0-5.301-2.373-5.301-5.299V47.899
				c0-2.927,2.373-5.3,5.301-5.3h88.332c2.928,0,5.301,2.373,5.301,5.3V97.367z"/>
		</g>
	</g>
	<g>
		<g>
			<path fill="#303030" d="M129.166,46.133H40.834c-0.977,0-1.768,0.791-1.768,1.767v49.468c0,0.975,0.791,1.766,1.768,1.766h88.332
				c0.977,0,1.768-0.791,1.768-1.766V47.899C130.934,46.924,130.143,46.133,129.166,46.133z M127.4,95.6H42.6V49.666H127.4V95.6z"/>
		</g>
	</g>
	<g>
		<g>
			<path fill="#303030" d="M63.8,53.199H47.9c-0.976,0-1.767,0.792-1.767,1.767V69.1c0,0.976,0.791,1.767,1.767,1.767
				c0.975,0,1.766-0.791,1.766-1.767V56.732H63.8c0.976,0,1.767-0.791,1.767-1.767C65.566,53.991,64.775,53.199,63.8,53.199z"/>
		</g>
	</g>
	<g>
	</g>
	<g>
	</g>
	<g>
	</g>
	<g>
	</g>
	<g>
	</g>
	<g>
	</g>
	<g>
	</g>
	<g>
	</g>
	<g>
	</g>
	<g>
	</g>
	<g>
	</g>
	<g>
	</g>
	<g>
	</g>
	<g>
	</g>
	<g>
	</g>
</g>
</svg>
